<?xml version="1.0" encoding="UTF-8" standalone="no"?>
<!DOCTYPE svg PUBLIC "-//W3C//DTD SVG 1.1//EN"
 "http://www.w3.org/Graphics/SVG/1.1/DTD/svg11.dtd">
<!-- Generated by graphviz version 2.40.1 (20161225.0304)
 -->
<!-- Title: models_diagram Pages: 1 -->
<svg width="654pt" height="232pt"
 viewBox="0.00 0.00 653.55 232.00" xmlns="http://www.w3.org/2000/svg" xmlns:xlink="http://www.w3.org/1999/xlink">
<g id="graph0" class="graph" transform="scale(1 1) rotate(0) translate(4 228)">
<title>models_diagram</title>
<polygon fill="transparent" stroke="transparent" points="-4,4 -4,-228 649.55,-228 649.55,4 -4,4"/>
<!-- _diagram_info -->
<g id="node1" class="node">
<title>_diagram_info</title>
<text text-anchor="start" x="8" y="-202.6" font-family="Times,serif" font-size="13.00" fill="#000000">Models diagram</text>
<text text-anchor="start" x="8" y="-189.6" font-family="Times,serif" font-size="13.00" fill="#000000">Date: Jul 19 2017 &#45; 13:41</text>
<text text-anchor="start" x="8" y="-176.6" font-family="Times,serif" font-size="13.00" fill="#000000">Migration version: 20170719172723</text>
<text text-anchor="start" x="8" y="-163.6" font-family="Times,serif" font-size="13.00" fill="#000000">Generated by RailRoady 1.5.3</text>
<text text-anchor="start" x="8" y="-150.6" font-family="Times,serif" font-size="13.00" fill="#000000">http://railroady.prestonlee.com</text>
</g>
<!-- ApplicationRecord -->
<g id="node2" class="node">
<title>ApplicationRecord</title>
<ellipse fill="none" stroke="#000000" cx="302.6877" cy="-180.5" rx="77.2916" ry="18"/>
<text text-anchor="middle" x="302.6877" y="-176.3" font-family="Times,serif" font-size="14.00" fill="#000000">ApplicationRecord</text>
</g>
<!-- Category -->
<g id="node3" class="node">
<title>Category</title>
<path fill="none" stroke="#000000" d="M409.8254,-137.5C409.8254,-137.5 633.55,-137.5 633.55,-137.5 639.55,-137.5 645.55,-143.5 645.55,-149.5 645.55,-149.5 645.55,-211.5 645.55,-211.5 645.55,-217.5 639.55,-223.5 633.55,-223.5 633.55,-223.5 409.8254,-223.5 409.8254,-223.5 403.8254,-223.5 397.8254,-217.5 397.8254,-211.5 397.8254,-211.5 397.8254,-149.5 397.8254,-149.5 397.8254,-143.5 403.8254,-137.5 409.8254,-137.5"/>
<text text-anchor="middle" x="521.6877" y="-208.3" font-family="Times,serif" font-size="14.00" fill="#000000">Category</text>
<polyline fill="none" stroke="#000000" points="397.8254,-201.5 645.55,-201.5 "/>
<text text-anchor="start" x="405.8254" y="-186.3" font-family="Times,serif" font-size="14.00" fill="#000000">id :integer</text>
<text text-anchor="start" x="405.8254" y="-172.3" font-family="Times,serif" font-size="14.00" fill="#000000">name :character varying</text>
<text text-anchor="start" x="405.8254" y="-158.3" font-family="Times,serif" font-size="14.00" fill="#000000">created_at :timestamp without time zone</text>
<text text-anchor="start" x="405.8254" y="-144.3" font-family="Times,serif" font-size="14.00" fill="#000000">updated_at :timestamp without time zone</text>
</g>
<!-- Product -->
<g id="node4" class="node">
<title>Product</title>
<path fill="none" stroke="#000000" d="M409.8254,-.5C409.8254,-.5 633.55,-.5 633.55,-.5 639.55,-.5 645.55,-6.5 645.55,-12.5 645.55,-12.5 645.55,-88.5 645.55,-88.5 645.55,-94.5 639.55,-100.5 633.55,-100.5 633.55,-100.5 409.8254,-100.5 409.8254,-100.5 403.8254,-100.5 397.8254,-94.5 397.8254,-88.5 397.8254,-88.5 397.8254,-12.5 397.8254,-12.5 397.8254,-6.5 403.8254,-.5 409.8254,-.5"/>
<text text-anchor="middle" x="521.6877" y="-85.3" font-family="Times,serif" font-size="14.00" fill="#000000">Product</text>
<polyline fill="none" stroke="#000000" points="397.8254,-78.5 645.55,-78.5 "/>
<text text-anchor="start" x="405.8254" y="-63.3" font-family="Times,serif" font-size="14.00" fill="#000000">id :integer</text>
<text text-anchor="start" x="405.8254" y="-49.3" font-family="Times,serif" font-size="14.00" fill="#000000">name :character varying</text>
<text text-anchor="start" x="405.8254" y="-35.3" font-family="Times,serif" font-size="14.00" fill="#000000">category_id :integer</text>
<text text-anchor="start" x="405.8254" y="-21.3" font-family="Times,serif" font-size="14.00" fill="#000000">created_at :timestamp without time zone</text>
<text text-anchor="start" x="405.8254" y="-7.3" font-family="Times,serif" font-size="14.00" fill="#000000">updated_at :timestamp without time zone</text>
</g>
<!-- Category&#45;&gt;Product -->
<g id="edge1" class="edge">
<title>Category&#45;&gt;Product</title>
<path fill="none" stroke="#21c21a" d="M521.6877,-129.1379C521.6877,-123.1635 521.6877,-117.0282 521.6877,-110.9463"/>
<ellipse fill="none" stroke="#21c21a" cx="521.6878" cy="-133.2119" rx="4" ry="4"/>
<polygon fill="#21c21a" stroke="#21c21a" points="521.6878,-110.7992 526.1877,-100.7991 521.6878,-105.7992 521.6877,-100.7992 521.6877,-100.7992 521.6877,-100.7992 521.6878,-105.7992 517.1877,-100.7992 521.6878,-110.7992 521.6878,-110.7992"/>
</g>
</g>
</svg>
